HIERARCHY
ROOT Hips
{
	OFFSET 0.000000 35.082581 0.000000
	CHANNELS 6 Xposition Yposition Zposition Xrotation Yrotation Zrotation 
	JOINT Spine
	{
		OFFSET 0.000000 6.876099 0.125700
		CHANNELS 3 Xrotation Yrotation Zrotation
		JOINT Spine1
		{
			OFFSET 0.000000 5.730043 0.104720
			CHANNELS 3 Xrotation Yrotation Zrotation
			JOINT Spine1_split
			{
				OFFSET 0.000000 5.730043 0.104720
				CHANNELS 3 Xrotation Yrotation Zrotation
				JOINT Spine2
				{
					OFFSET 0.000000 5.730043 0.104720
					CHANNELS 3 Xrotation Yrotation Zrotation
					JOINT Neck
					{
						OFFSET 0.000000 10.314075 0.188496
						CHANNELS 3 Xrotation Yrotation Zrotation
						JOINT Head
						{
							OFFSET 0.000000 7.643700 -2.377400
							CHANNELS 3 Xrotation Yrotation Zrotation
							JOINT HeadTop_End
							{
								OFFSET 0.000000 43.788605 -13.619600
								CHANNELS 3 Xrotation Yrotation Zrotation
								End Site
								{
									OFFSET 0.000000 0.000000 0.000000
								}
							}
						}
					}
					JOINT LeftShoulder
					{
						OFFSET 2.196100 4.412489 0.087492
						CHANNELS 3 Xrotation Yrotation Zrotation
						JOINT LeftShoulder_split
						{
							OFFSET 2.196100 4.412489 0.087492
							CHANNELS 3 Xrotation Yrotation Zrotation
							JOINT LeftArm
							{
								OFFSET 8.771219 -2.981674 -0.026999
								CHANNELS 3 Xrotation Yrotation Zrotation
								JOINT LeftForeArm
								{
									OFFSET 8.512804 0.000000 -0.000000
									CHANNELS 3 Xrotation Yrotation Zrotation
									JOINT LeftHand
									{
										OFFSET 18.484802 0.000000 -0.000000
										CHANNELS 3 Xrotation Yrotation Zrotation
										JOINT LeftHandThumb1
										{
											OFFSET 2.499420 -1.158070 2.653252
											CHANNELS 3 Xrotation Yrotation Zrotation
											JOINT LeftHandThumb2
											{
												OFFSET 2.370079 -1.368366 1.368366
												CHANNELS 3 Xrotation Yrotation Zrotation
												JOINT LeftHandThumb3
												{
													OFFSET 2.676727 -1.545410 1.545409
													CHANNELS 3 Xrotation Yrotation Zrotation
													JOINT LeftHandThumb4
													{
														OFFSET 1.692226 -0.977005 0.977007
														CHANNELS 3 Xrotation Yrotation Zrotation
														End Site
														{
															OFFSET 0.000000 0.000000 0.000000
														}
													}
												}
											}
										}
										JOINT LeftHandIndex1
										{
											OFFSET 7.924831 -0.457527 2.345128
											CHANNELS 3 Xrotation Yrotation Zrotation
											JOINT LeftHandIndex2
											{
												OFFSET 3.643303 0.000000 0.000000
												CHANNELS 3 Xrotation Yrotation Zrotation
												JOINT LeftHandIndex3
												{
													OFFSET 3.810799 0.000000 0.000000
													CHANNELS 3 Xrotation Yrotation Zrotation
													JOINT LeftHandIndex4
													{
														OFFSET 2.403702 0.000000 0.000000
														CHANNELS 3 Xrotation Yrotation Zrotation
														End Site
														{
															OFFSET 0.000000 0.000000 0.000000
														}
													}
												}
											}
										}
										JOINT LeftHandMiddle1
										{
											OFFSET 8.563995 0.000000 -0.000000
											CHANNELS 3 Xrotation Yrotation Zrotation
											JOINT LeftHandMiddle2
											{
												OFFSET 3.861618 0.000000 0.000000
												CHANNELS 3 Xrotation Yrotation Zrotation
												JOINT LeftHandMiddle3
												{
													OFFSET 3.701603 0.000000 0.000000
													CHANNELS 3 Xrotation Yrotation Zrotation
													JOINT LeftHandMiddle4
													{
														OFFSET 2.322544 0.000000 0.000000
														CHANNELS 3 Xrotation Yrotation Zrotation
														End Site
														{
															OFFSET 0.000000 0.000000 0.000000
														}
													}
												}
											}
										}
										JOINT LeftHandRing1
										{
											OFFSET 8.426460 -0.424637 -3.286992
											CHANNELS 3 Xrotation Yrotation Zrotation
											JOINT LeftHandRing2
											{
												OFFSET 3.126408 0.000000 0.000000
												CHANNELS 3 Xrotation Yrotation Zrotation
												JOINT LeftHandRing3
												{
													OFFSET 3.085026 0.000000 0.000000
													CHANNELS 3 Xrotation Yrotation Zrotation
													JOINT LeftHandRing4
													{
														OFFSET 1.644005 0.000000 0.000000
														CHANNELS 3 Xrotation Yrotation Zrotation
														End Site
														{
															OFFSET 0.000000 0.000000 0.000000
														}
													}
												}
											}
										}
									}
								}
							}
						}
					}
					JOINT RightShoulder
					{
						OFFSET -2.196100 4.412496 0.070690
						CHANNELS 3 Xrotation Yrotation Zrotation
						JOINT RightShoulder_split
						{
							OFFSET -2.196100 4.412496 0.070690
							CHANNELS 3 Xrotation Yrotation Zrotation
							JOINT RightArm
							{
								OFFSET -8.771282 -2.981682 -0.094208
								CHANNELS 3 Xrotation Yrotation Zrotation
								JOINT RightForeArm
								{
									OFFSET -8.494598 0.000000 0.000000
									CHANNELS 3 Xrotation Yrotation Zrotation
									JOINT RightHand
									{
										OFFSET -18.483803 0.000000 0.000001
										CHANNELS 3 Xrotation Yrotation Zrotation
										JOINT RightHandThumb1
										{
											OFFSET -2.527351 -1.008072 2.575253
											CHANNELS 3 Xrotation Yrotation Zrotation
											JOINT RightHandThumb2
											{
												OFFSET -2.321518 -1.340328 1.340329
												CHANNELS 3 Xrotation Yrotation Zrotation
												JOINT RightHandThumb3
												{
													OFFSET -2.657753 -1.534454 1.534455
													CHANNELS 3 Xrotation Yrotation Zrotation
													JOINT RightHandThumb4
													{
														OFFSET -1.807510 -1.043568 1.043567
														CHANNELS 3 Xrotation Yrotation Zrotation
														End Site
														{
															OFFSET 0.000000 0.000000 0.000000
														}
													}
												}
											}
										}
										JOINT RightHandIndex1
										{
											OFFSET -8.811420 0.015533 2.887987
											CHANNELS 3 Xrotation Yrotation Zrotation
											JOINT RightHandIndex2
											{
												OFFSET -3.537502 0.000000 0.000000
												CHANNELS 3 Xrotation Yrotation Zrotation
												JOINT RightHandIndex3
												{
													OFFSET -3.356201 0.000000 0.000000
													CHANNELS 3 Xrotation Yrotation Zrotation
													JOINT RightHandIndex4
													{
														OFFSET -1.933098 0.000000 0.000000
														CHANNELS 3 Xrotation Yrotation Zrotation
														End Site
														{
															OFFSET 0.000000 0.000000 0.000000
														}
													}
												}
											}
										}
										JOINT RightHandMiddle1
										{
											OFFSET -8.178135 0.000000 0.000000
											CHANNELS 3 Xrotation Yrotation Zrotation
											JOINT RightHandMiddle2
											{
												OFFSET -3.901302 0.000000 0.000000
												CHANNELS 3 Xrotation Yrotation Zrotation
												JOINT RightHandMiddle3
												{
													OFFSET -3.909599 0.000000 0.000000
													CHANNELS 3 Xrotation Yrotation Zrotation
													JOINT RightHandMiddle4
													{
														OFFSET -2.376003 0.000000 0.000000
														CHANNELS 3 Xrotation Yrotation Zrotation
														End Site
														{
															OFFSET 0.000000 0.000000 0.000000
														}
													}
												}
											}
										}
										JOINT RightHandRing1
										{
											OFFSET -7.559013 0.014137 -2.865403
											CHANNELS 3 Xrotation Yrotation Zrotation
											JOINT RightHandRing2
											{
												OFFSET -3.449306 0.000000 0.000000
												CHANNELS 3 Xrotation Yrotation Zrotation
												JOINT RightHandRing3
												{
													OFFSET -3.362106 0.000000 0.000000
													CHANNELS 3 Xrotation Yrotation Zrotation
													JOINT RightHandRing4
													{
														OFFSET -2.076401 0.000000 0.000000
														CHANNELS 3 Xrotation Yrotation Zrotation
														End Site
														{
															OFFSET 0.000000 0.000000 0.000000
														}
													}
												}
											}
										}
									}
								}
							}
						}
					}
				}
			}
		}
	}
	JOINT LeftUpLeg
	{
		OFFSET 10.205400 -3.823500 0.155100
		CHANNELS 3 Xrotation Yrotation Zrotation
		JOINT LeftLeg
		{
			OFFSET 0.708757 -12.982077 0.567790
			CHANNELS 3 Xrotation Yrotation Zrotation
			JOINT LeftFoot
			{
				OFFSET -0.708756 -10.717838 -2.184338
				CHANNELS 3 Xrotation Yrotation Zrotation
				JOINT LeftToeBase
				{
					OFFSET 0.108149 -7.191104 7.560241
					CHANNELS 3 Xrotation Yrotation Zrotation
					JOINT LeftToe_End
					{
						OFFSET 0.070230 0.081724 4.490308
						CHANNELS 3 Xrotation Yrotation Zrotation
						End Site
						{
							OFFSET 0.000000 0.000000 0.000000
						}
					}
				}
			}
		}
	}
	JOINT RightUpLeg
	{
		OFFSET -10.205400 -3.823500 0.005500
		CHANNELS 3 Xrotation Yrotation Zrotation
		JOINT RightLeg
		{
			OFFSET -0.708756 -12.982134 0.610632
			CHANNELS 3 Xrotation Yrotation Zrotation
			JOINT RightFoot
			{
				OFFSET 0.708754 -10.717769 -1.945823
				CHANNELS 3 Xrotation Yrotation Zrotation
				JOINT RightToeBase
				{
					OFFSET -0.108140 -7.191069 7.372968
					CHANNELS 3 Xrotation Yrotation Zrotation
					JOINT RightToe_End
					{
						OFFSET -0.070227 0.081735 4.479403
						CHANNELS 3 Xrotation Yrotation Zrotation
						End Site
						{
							OFFSET 0.000000 0.000000 0.000000
						}
					}
				}
			}
		}
	}
}
MOTION
Frames: 4
Frame Time: 0.016667
0.206890 45.011276 8.088402 -90.675215 -2.026259 1.589123 0.642563 -0.166017 -0.664002 0.768335 0.010520 -0.441587 0.000000 0.000000 0.000000 0.794653 0.003108 -0.423897 -4.679088 4.214175 -8.229254 4.592466 8.465933 -14.419385 0.000000 -0.000001 0.000000 0.826358 -6.003522 -3.769261 0.000000 0.000000 0.000000 44.058125 -39.817066 -34.619596 0.000110 -83.309463 0.000119 -22.984422 -8.371311 7.116300 -1.945781 1.585326 13.204799 8.601839 21.114946 -0.258295 -4.250521 28.326738 20.005276 0.000001 0.000000 0.000001 0.776303 5.158037 -28.512492 0.566000 2.514180 -25.370936 0.306481 1.871769 -18.596435 -0.000006 -0.000001 -0.000001 0.776301 5.158042 -28.512495 0.566009 2.514176 -25.370939 0.084765 0.994019 -9.747970 -0.000002 -0.000002 0.000000 0.776288 5.158033 -28.512505 0.351472 2.000436 -19.927997 0.131460 1.235364 -12.147813 0.000001 -0.000000 -0.000001 0.511993 4.220246 2.974382 0.000000 0.000000 0.000000 -4.382359 2.494172 83.944172 -0.000004 129.402414 -0.000002 -0.000535 -5.590403 64.849607 -1.120916 -3.665704 -6.555844 8.244852 -30.620776 -3.274785 -5.098237 -8.587494 -15.375861 0.000004 0.000004 -0.000000 4.540604 -8.344322 48.387396 6.575564 -4.244502 114.349101 1.886335 -3.744671 53.459798 -0.000001 -0.000000 0.000001 2.375480 -6.542192 44.640211 7.222621 -3.888173 123.454795 1.885864 -3.744334 53.452664 0.000001 -0.000001 -0.000002 2.745576 -6.923862 44.442292 7.225015 -3.886570 123.490312 1.886198 -3.744573 53.457821 -0.000003 -0.000001 -0.000003 -11.931874 17.567294 19.857925 16.720071 -0.629796 1.035927 18.514331 31.279517 -27.981046 -2.210871 0.000004 -0.000009 0.000000 -0.000004 0.000000 -17.182190 -15.811767 -20.884509 24.614600 -2.842078 -4.542308 25.124463 -32.975624 33.792443 -5.352377 0.000061 -0.000014 -0.000001 0.000000 -0.000000 
0.207954 45.010704 8.088638 -90.682851 -2.021818 1.587168 0.642911 -0.166304 -0.657424 0.775550 0.010199 -0.441929 0.000000 0.000000 0.000000 0.799310 0.002338 -0.423853 -4.701081 4.246302 -8.217701 5.074996 8.483807 -14.697199 -0.000000 0.000001 -0.000000 0.821166 -6.021029 -3.761095 0.000000 0.000000 0.000000 44.049485 -39.813009 -34.639076 0.000015 -83.307148 0.000009 -22.981572 -8.387152 7.124601 -1.945783 1.585329 13.204791 8.601833 21.114942 -0.258292 -4.250519 28.326738 20.005274 -0.000001 -0.000002 -0.000004 0.776301 5.158035 -28.512495 0.565998 2.514183 -25.370937 0.306477 1.871767 -18.596442 0.000001 -0.000000 0.000001 0.776301 5.158039 -28.512495 0.566009 2.514177 -25.370936 0.084770 0.994024 -9.747971 -0.000002 0.000002 -0.000001 0.776288 5.158034 -28.512509 0.351469 2.000438 -19.927999 0.131457 1.235367 -12.147813 0.000002 -0.000000 0.000001 0.506636 4.242359 2.977796 0.000000 0.000000 0.000000 -4.368370 2.476208 83.932841 -0.000027 129.413507 0.000019 -0.003269 -5.593552 64.841923 -1.120911 -3.665703 -6.555849 8.244851 -30.620776 -3.274793 -5.098232 -8.587488 -15.375861 0.000000 0.000002 0.000001 4.540611 -8.344323 48.387396 6.575561 -4.244502 114.349094 1.886335 -3.744669 53.459798 -0.000001 -0.000000 -0.000001 2.375481 -6.542194 44.640207 7.222616 -3.888172 123.454795 1.885867 -3.744333 53.452664 -0.000001 0.000002 0.000003 2.745582 -6.923864 44.442289 7.225008 -3.886568 123.490298 1.886196 -3.744574 53.457831 -0.000003 0.000000 0.000002 -11.930397 17.569480 19.858389 16.729613 -0.623578 1.034383 18.505668 31.277536 -27.972744 -2.262186 0.000004 -0.000006 0.000000 -0.000004 0.000000 -17.166810 -15.814062 -20.883850 24.608639 -2.850598 -4.542019 25.125022 -32.975754 33.799734 -5.318555 0.000032 0.000030 0.000001 0.000001 -0.000000 
0.209255 45.009895 8.089264 -90.690555 -2.017330 1.585021 0.643206 -0.166533 -0.649903 0.783325 0.010056 -0.442169 0.000000 0.000000 0.000000 0.801158 0.001820 -0.423847 -4.737149 4.281858 -8.205620 5.647830 8.498318 -15.023522 0.000000 0.000000 0.000001 0.816269 -6.034779 -3.754560 0.000000 0.000000 0.000000 44.044895 -39.812353 -34.650175 -0.000015 -83.304143 -0.000011 -22.980124 -8.404214 7.133066 -1.945778 1.585331 13.204800 8.601838 21.114949 -0.258297 -4.250519 28.326741 20.005272 -0.000003 0.000001 -0.000000 0.776307 5.158041 -28.512486 0.565997 2.514176 -25.370936 0.306477 1.871769 -18.596447 -0.000003 0.000001 -0.000003 0.776306 5.158044 -28.512492 0.566006 2.514178 -25.370941 0.084772 0.994024 -9.747967 -0.000001 -0.000001 0.000000 0.776290 5.158038 -28.512505 0.351473 2.000432 -19.927996 0.131459 1.235367 -12.147813 -0.000003 0.000002 -0.000000 0.501671 4.258663 2.981394 0.000000 0.000000 0.000000 -4.356453 2.463930 83.921838 -0.000034 129.421908 0.000017 -0.006369 -5.596642 64.834191 -1.120919 -3.665706 -6.555846 8.244853 -30.620773 -3.274793 -5.098239 -8.587489 -15.375864 0.000002 -0.000000 -0.000000 4.540604 -8.344320 48.387399 6.575558 -4.244499 114.349094 1.886336 -3.744666 53.459795 -0.000001 0.000001 -0.000001 2.375476 -6.542193 44.640214 7.222619 -3.888175 123.454809 1.885864 -3.744336 53.452671 -0.000001 0.000002 -0.000000 2.745576 -6.923862 44.442292 7.225013 -3.886570 123.490298 1.886197 -3.744576 53.457821 0.000003 0.000001 -0.000001 -11.927419 17.571599 19.858954 16.738610 -0.618906 1.032456 18.497474 31.274313 -27.968318 -2.313754 0.000030 0.000019 0.000000 -0.000004 0.000000 -17.152294 -15.816264 -20.882912 24.604633 -2.861353 -4.541735 25.124885 -32.975911 33.807712 -5.284963 0.000022 -0.000001 -0.000000 -0.000000 -0.000000 
0.211247 45.009689 8.090656 -90.697522 -2.012826 1.582472 0.643323 -0.166702 -0.641393 0.790635 0.010041 -0.442317 0.000000 0.000000 0.000000 0.802104 0.001533 -0.423876 -4.784985 4.319757 -8.193455 6.265793 8.513241 -15.381152 0.000000 0.000000 0.000001 0.814086 -6.042081 -3.750265 0.000000 0.000000 0.000000 44.046329 -39.816198 -34.649263 0.000004 -83.299382 -0.000020 -22.982825 -8.421626 7.140856 -1.945779 1.585328 13.204795 8.601838 21.114941 -0.258292 -4.250518 28.326738 20.005276 0.000001 -0.000000 -0.000004 0.776302 5.158033 -28.512492 0.565996 2.514183 -25.370934 0.306482 1.871767 -18.596443 0.000001 -0.000000 -0.000001 0.776306 5.158039 -28.512498 0.566010 2.514177 -25.370939 0.084767 0.994022 -9.747968 -0.000001 0.000000 0.000001 0.776290 5.158032 -28.512505 0.351474 2.000437 -19.927997 0.131461 1.235364 -12.147814 0.000001 -0.000000 -0.000001 0.495741 4.266200 2.985356 0.000000 0.000000 0.000000 -4.348688 2.459911 83.910288 -0.000006 129.426511 -0.000019 -0.009923 -5.599736 64.826644 -1.120912 -3.665701 -6.555848 8.244843 -30.620773 -3.274787 -5.098238 -8.587488 -15.375866 0.000002 0.000001 0.000002 4.540610 -8.344324 48.387396 6.575563 -4.244502 114.349108 1.886334 -3.744673 53.459798 -0.000001 -0.000001 -0.000002 2.375487 -6.542192 44.640207 7.222620 -3.888176 123.454795 1.885866 -3.744335 53.452668 0.000002 0.000000 -0.000000 2.745580 -6.923863 44.442292 7.225012 -3.886569 123.490312 1.886194 -3.744577 53.457821 -0.000004 -0.000001 -0.000000 -11.931133 17.569811 19.865347 16.739810 -0.658904 1.032190 18.510250 31.265939 -27.976381 -2.364411 0.000024 -0.000004 0.000000 -0.000001 0.000000 -17.150164 -15.812549 -20.889118 24.611330 -2.845486 -4.541816 25.136220 -32.975409 33.816659 -5.250768 0.000030 -0.000011 -0.000001 -0.000001 0.000000 
